<svg xmlns="http://www.w3.org/2000/svg" width="35" height="35" viewBox="0 0 35 35" fill="none">
<path d="M9.72222 0C4.35361 0 0 4.35361 0 9.72222V25.2778C0 30.6464 4.35361 35 9.72222 35H25.2778C30.6464 35 35 30.6464 35 25.2778V9.72222C35 4.35361 30.6464 0 25.2778 0H9.72222ZM29.1667 3.88889C30.24 3.88889 31.1111 4.76 31.1111 5.83333C31.1111 6.90667 30.24 7.77778 29.1667 7.77778C28.0933 7.77778 27.2222 6.90667 27.2222 5.83333C27.2222 4.76 28.0933 3.88889 29.1667 3.88889ZM17.5 7.77778C22.8686 7.77778 27.2222 12.1314 27.2222 17.5C27.2222 22.8686 22.8686 27.2222 17.5 27.2222C12.1314 27.2222 7.77778 22.8686 7.77778 17.5C7.77778 12.1314 12.1314 7.77778 17.5 7.77778ZM17.5 11.6667C15.9529 11.6667 14.4692 12.2812 13.3752 13.3752C12.2812 14.4692 11.6667 15.9529 11.6667 17.5C11.6667 19.0471 12.2812 20.5308 13.3752 21.6248C14.4692 22.7188 15.9529 23.3333 17.5 23.3333C19.0471 23.3333 20.5308 22.7188 21.6248 21.6248C22.7188 20.5308 23.3333 19.0471 23.3333 17.5C23.3333 15.9529 22.7188 14.4692 21.6248 13.3752C20.5308 12.2812 19.0471 11.6667 17.5 11.6667Z" fill="#542AA9"/>
</svg>