<svg xmlns="http://www.w3.org/2000/svg" width="35" height="35" viewBox="0 0 35 35" fill="none">
<path d="M29.8862 5.124C26.5856 1.82175 22.1964 0.00175 17.5201 0C7.88414 0 0.0420022 7.83825 0.038502 17.4737C0.036752 20.5537 0.841792 23.5602 2.37137 26.2097L0 35L9.15821 32.8353C11.7116 34.2283 14.5852 34.9615 17.5114 34.9633H17.5184C27.1526 34.9633 34.9947 27.1233 35 17.4895C35.0035 12.8188 33.1869 8.428 29.8862 5.124ZM26.0728 23.7195C25.7088 24.7397 23.9254 25.7232 23.1239 25.795C22.3224 25.8685 21.5716 26.1572 17.8824 24.703C13.4424 22.953 10.6388 18.4012 10.4218 18.1107C10.203 17.8185 8.63843 15.743 8.63843 13.594C8.63843 11.445 9.76724 10.388 10.168 9.95225C10.5688 9.51475 11.0413 9.40625 11.3336 9.40625C11.6241 9.40625 11.9163 9.40625 12.1701 9.41675C12.4816 9.429 12.8264 9.44475 13.1537 10.171C13.5422 11.0355 14.391 13.195 14.4995 13.4137C14.608 13.6325 14.6815 13.888 14.5362 14.1785C14.391 14.469 14.3175 14.651 14.1005 14.9065C13.8817 15.162 13.6419 15.4752 13.4459 15.6712C13.2272 15.8882 12.9996 16.1262 13.2534 16.562C13.5089 16.9995 14.384 18.4293 15.6825 19.586C17.3521 21.0735 18.7574 21.5337 19.195 21.7542C19.6325 21.973 19.8862 21.9363 20.1418 21.644C20.3973 21.3535 21.2338 20.37 21.5243 19.9325C21.8148 19.495 22.1071 19.5685 22.5079 19.7138C22.9086 19.859 25.056 20.916 25.4918 21.1347C25.9293 21.3535 26.2198 21.462 26.3283 21.644C26.4368 21.8243 26.4368 22.6992 26.0728 23.7195Z" fill="#542AA9"/>
</svg>